name rise30.6535peak61.5555fall82.9339.mot
datacolumns 19
datarows 29
range 12.49495500000000 12.54161500000000
endheader
time	ground_force1_vx	ground_force1_vy	ground_force1_vz	ground_force1_px	ground_force1_py	ground_force1_pz	ground_force2_vx	ground_force2_vy	ground_force2_vz	ground_force2_px	ground_force2_py	ground_force2_pz	ground_torque1_x	ground_torque1_y	ground_torque1_z	ground_torque2_x	ground_torque2_y	ground_torque2_z	
12.49495500000000	-8.22721800000000	45.11819900000000	-10.98649800000000	0.32755500000000	0.00000000000000	0.04540400000000	-57.99877300000000	741.97815400000002	-46.17152500000000	0.13251800000000	0.00000000000000	-0.11866400000000	0.00000000000000	-8.35084600000000	0.00000000000000	0.00000000000000	-22.78584000000000	0.00000000000000	
12.49661900000000	-8.83068600000000	53.48415200000000	-12.39396400000000	0.33450000000000	0.00000000000000	0.04627700000000	-58.87543400000000	739.09429799999998	-45.75883400000000	0.13124300000000	0.00000000000000	-0.11855400000000	0.00000000000000	-9.53272100000000	0.00000000000000	0.00000000000000	-22.80439600000000	0.00000000000000	
12.49828400000000	-9.22809900000000	62.11190900000000	-13.68721100000000	0.34061200000000	0.00000000000000	0.04704700000000	-59.76232200000000	736.09816699999999	-45.32831600000000	0.12995900000000	0.00000000000000	-0.11844200000000	0.00000000000000	-10.64389100000000	0.00000000000000	0.00000000000000	-22.82448000000000	0.00000000000000	
12.49994500000000	-9.39728400000000	70.90204199999999	-14.83723500000000	0.34604800000000	0.00000000000000	0.04773500000000	-60.65787300000000	732.98561900000004	-44.87964700000000	0.12866700000000	0.00000000000000	-0.11832900000000	0.00000000000000	-11.65941300000000	0.00000000000000	0.00000000000000	-22.84578100000000	0.00000000000000	
12.50161900000000	-9.32676100000000	79.77510900000000	-15.82449800000000	0.35092800000000	0.00000000000000	0.04835600000000	-61.56041400000000	729.75245199999995	-44.41252900000000	0.12736600000000	0.00000000000000	-0.11821400000000	0.00000000000000	-12.56152100000000	0.00000000000000	0.00000000000000	-22.86796700000000	0.00000000000000	
12.50327900000000	-9.01538100000000	88.67462399999999	-16.63909900000000	0.35534400000000	0.00000000000000	0.04892200000000	-62.46816700000000	726.39441799999997	-43.92668800000000	0.12605800000000	0.00000000000000	-0.11809800000000	0.00000000000000	-13.33994500000000	0.00000000000000	0.00000000000000	-22.89068700000000	0.00000000000000	
12.50494800000000	-8.47117600000000	97.56762600000000	-17.28012200000000	0.35937000000000	0.00000000000000	0.04944200000000	-63.37924900000000	722.90724399999999	-43.42188200000000	0.12474400000000	0.00000000000000	-0.11798000000000	0.00000000000000	-13.99155500000000	0.00000000000000	0.00000000000000	-22.91356700000000	0.00000000000000	
12.50662000000000	-7.70966000000000	106.44321600000001	-17.75436700000000	0.36306200000000	0.00000000000000	0.04992300000000	-64.29167700000001	719.28664100000003	-42.89789800000000	0.12342300000000	0.00000000000000	-0.11786100000000	0.00000000000000	-14.51949600000000	0.00000000000000	0.00000000000000	-22.93621900000000	0.00000000000000	
12.50828000000000	-6.75179800000000	115.30951399999999	-18.07465900000000	0.36646800000000	0.00000000000000	0.05037000000000	-65.20336900000000	715.52833199999998	-42.35456100000000	0.12209700000000	0.00000000000000	-0.11774000000000	0.00000000000000	-14.93194100000000	0.00000000000000	0.00000000000000	-22.95823500000000	0.00000000000000	
12.50994500000000	-5.62189000000000	124.18958100000000	-18.25796100000000	0.36962600000000	0.00000000000000	0.05078800000000	-66.11215199999999	711.62806200000000	-41.79173100000000	0.12076700000000	0.00000000000000	-0.11761700000000	0.00000000000000	-15.24065900000000	0.00000000000000	0.00000000000000	-22.97919000000000	0.00000000000000	
12.51161700000000	-4.34553000000000	133.11682099999999	-18.32347900000000	0.37256800000000	0.00000000000000	0.05118100000000	-67.01576200000000	707.58162600000003	-41.20930900000000	0.11943300000000	0.00000000000000	-0.11749300000000	0.00000000000000	-15.45953300000000	0.00000000000000	0.00000000000000	-22.99864300000000	0.00000000000000	
12.51328400000000	-2.94782400000000	142.13031599999999	-18.29090400000000	0.37532100000000	0.00000000000000	0.05155200000000	-67.91185500000000	703.38488700000005	-40.60724000000000	0.11809700000000	0.00000000000000	-0.11736700000000	0.00000000000000	-15.60316500000000	0.00000000000000	0.00000000000000	-23.01614100000000	0.00000000000000	
12.51495000000000	-1.45193600000000	151.27049900000000	-18.17892800000000	0.37790600000000	0.00000000000000	0.05190300000000	-68.79800800000000	699.03379900000004	-39.98551300000000	0.11675900000000	0.00000000000000	-0.11723900000000	0.00000000000000	-15.68566300000000	0.00000000000000	0.00000000000000	-23.03121400000000	0.00000000000000	
12.51661500000000	0.12195800000000	160.57542500000000	-18.00408500000000	0.38034300000000	0.00000000000000	0.05223700000000	-69.67172700000000	694.52443000000005	-39.34416300000000	0.11542000000000	0.00000000000000	-0.11711000000000	0.00000000000000	-15.71967800000000	0.00000000000000	0.00000000000000	-23.04338200000000	0.00000000000000	
12.51828300000000	1.75731700000000	170.07784300000000	-17.77996000000000	0.38264800000000	0.00000000000000	0.05255500000000	-70.53045500000000	689.85298699999998	-38.68327600000000	0.11408200000000	0.00000000000000	-0.11697800000000	0.00000000000000	-15.71572100000000	0.00000000000000	0.00000000000000	-23.05215500000000	0.00000000000000	
12.51995000000000	3.44148600000000	179.80313400000000	-17.51675900000000	0.38483400000000	0.00000000000000	0.05285900000000	-71.37157800000000	685.01583700000003	-38.00298700000000	0.11274500000000	0.00000000000000	-0.11684500000000	0.00000000000000	-15.68176100000000	0.00000000000000	0.00000000000000	-23.05703100000000	0.00000000000000	
12.52161600000000	5.16561900000000	189.76812899999999	-17.22120900000000	0.38691300000000	0.00000000000000	0.05315000000000	-72.19243000000000	680.00953200000004	-37.30348700000000	0.11141200000000	0.00000000000000	-0.11671000000000	0.00000000000000	-15.62309300000000	0.00000000000000	0.00000000000000	-23.05750100000000	0.00000000000000	
12.52328500000000	6.92433000000000	199.98072300000001	-16.89674100000000	0.38889600000000	0.00000000000000	0.05343000000000	-72.99030900000000	674.83082800000000	-36.58501900000000	0.11008200000000	0.00000000000000	-0.11657200000000	0.00000000000000	-15.54242900000000	0.00000000000000	0.00000000000000	-23.05305100000000	0.00000000000000	
12.52494500000000	8.71514900000000	210.44018700000001	-16.54387500000000	0.39079200000000	0.00000000000000	0.05369900000000	-73.76247499999999	669.47670800000003	-35.84788300000000	0.10875800000000	0.00000000000000	-0.11643300000000	0.00000000000000	-15.44016600000000	0.00000000000000	0.00000000000000	-23.04315800000000	0.00000000000000	
12.52661800000000	10.53786100000000	221.13800699999999	-16.16076800000000	0.39260700000000	0.00000000000000	0.05395800000000	-74.50616700000000	663.94440099999997	-35.09243600000000	0.10744000000000	0.00000000000000	-0.11629100000000	0.00000000000000	-15.31479100000000	0.00000000000000	0.00000000000000	-23.02730000000000	0.00000000000000	
12.52828100000000	12.39380000000000	232.05910499999999	-15.74382600000000	0.39435000000000	0.00000000000000	0.05420800000000	-75.21860800000000	658.23139900000001	-34.31909600000000	0.10613000000000	0.00000000000000	-0.11614700000000	0.00000000000000	-15.16334400000000	0.00000000000000	0.00000000000000	-23.00495000000000	0.00000000000000	
12.52995100000000	14.28515600000000	243.18327099999999	-15.28834200000000	0.39602500000000	0.00000000000000	0.05444900000000	-75.89701700000001	652.33546999999999	-33.52834000000000	0.10483000000000	0.00000000000000	-0.11600100000000	0.00000000000000	-14.98192100000000	0.00000000000000	0.00000000000000	-22.97558500000000	0.00000000000000	
12.53161100000000	16.21434500000000	254.48667399999999	-14.78910500000000	0.39763900000000	0.00000000000000	0.05468200000000	-76.53861499999999	646.25467700000002	-32.72070800000000	0.10354100000000	0.00000000000000	-0.11585200000000	0.00000000000000	-14.76614600000000	0.00000000000000	0.00000000000000	-22.93867900000000	0.00000000000000	
12.53327800000000	18.18348700000000	265.94331199999999	-14.24092800000000	0.39919500000000	0.00000000000000	0.05490800000000	-77.14064000000000	639.98738000000003	-31.89680400000000	0.10226400000000	0.00000000000000	-0.11570100000000	0.00000000000000	-14.51160800000000	0.00000000000000	0.00000000000000	-22.89371500000000	0.00000000000000	
12.53494500000000	20.19398700000000	277.52632699999998	-13.63909500000000	0.40069800000000	0.00000000000000	0.05512700000000	-77.70035500000000	633.53225499999996	-31.05729700000000	0.10100100000000	0.00000000000000	-0.11554700000000	0.00000000000000	-14.21421300000000	0.00000000000000	0.00000000000000	-22.84018000000000	0.00000000000000	
12.53661200000000	22.24625900000000	289.20909499999999	-12.97968400000000	0.40215100000000	0.00000000000000	0.05533900000000	-78.21505800000000	626.88829799999996	-30.20292200000000	0.09975300000000	0.00000000000000	-0.11539000000000	0.00000000000000	-13.87046300000000	0.00000000000000	0.00000000000000	-22.77757100000000	0.00000000000000	
12.53828500000000	24.33956600000000	300.96607899999998	-12.25978600000000	0.40355700000000	0.00000000000000	0.05554500000000	-78.68209700000000	620.05483400000003	-29.33448300000000	0.09852200000000	0.00000000000000	-0.11523000000000	0.00000000000000	-13.47764000000000	0.00000000000000	0.00000000000000	-22.70539600000000	0.00000000000000	
12.53995200000000	26.47197400000000	312.77341999999999	-11.47761500000000	0.40491800000000	0.00000000000000	0.05574500000000	-79.09887900000000	613.03152699999998	-28.45284900000000	0.09731000000000	0.00000000000000	-0.11506700000000	0.00000000000000	-13.03390800000000	0.00000000000000	0.00000000000000	-22.62317500000000	0.00000000000000	
12.54161500000000	28.64040200000000	324.60927400000003	-10.63252200000000	0.40623800000000	0.00000000000000	0.05594000000000	-79.46288500000000	605.81839000000002	-27.55895800000000	0.09611800000000	0.00000000000000	-0.11490000000000	0.00000000000000	-12.53833700000000	0.00000000000000	0.00000000000000	-22.53044800000000	0.00000000000000	
